<svg width="341" height="50" viewBox="0 0 341 50" fill="none" xmlns="http://www.w3.org/2000/svg">
<path d="M46.3332 25C46.3332 13.5 36.9998 4.16663 25.4998 4.16663C13.9998 4.16663 4.6665 13.5 4.6665 25C4.6665 35.0833 11.8332 43.4791 21.3332 45.4166V31.25H17.1665V25H21.3332V19.7916C21.3332 15.7708 24.604 12.5 28.6248 12.5H33.8332V18.75H29.6665C28.5207 18.75 27.5832 19.6875 27.5832 20.8333V25H33.8332V31.25H27.5832V45.7291C38.104 44.6875 46.3332 35.8125 46.3332 25Z" fill="#850F0F"/>
<path d="M140.646 11.1042C137.875 9.81251 134.875 8.87501 131.75 8.33335C131.723 8.33247 131.695 8.33761 131.67 8.34841C131.645 8.35921 131.623 8.3754 131.604 8.39585C131.229 9.08335 130.792 9.97918 130.5 10.6667C127.185 10.1667 123.815 10.1667 120.5 10.6667C120.208 9.95835 119.771 9.08335 119.375 8.39585C119.354 8.35418 119.292 8.33335 119.229 8.33335C116.104 8.87501 113.125 9.81251 110.333 11.1042C110.313 11.1042 110.292 11.125 110.271 11.1458C104.604 19.625 103.042 27.875 103.813 36.0417C103.813 36.0833 103.833 36.125 103.875 36.1458C107.625 38.8958 111.229 40.5625 114.792 41.6667C114.854 41.6875 114.917 41.6667 114.938 41.625C115.771 40.4792 116.521 39.2708 117.167 38C117.208 37.9167 117.167 37.8333 117.083 37.8125C115.896 37.3542 114.771 36.8125 113.667 36.1875C113.583 36.1458 113.583 36.0208 113.646 35.9583C113.875 35.7917 114.104 35.6042 114.333 35.4375C114.375 35.3958 114.438 35.3958 114.479 35.4167C121.646 38.6875 129.375 38.6875 136.458 35.4167C136.5 35.3958 136.563 35.3958 136.604 35.4375C136.833 35.625 137.063 35.7917 137.292 35.9792C137.375 36.0417 137.375 36.1667 137.271 36.2083C136.188 36.8542 135.042 37.375 133.854 37.8333C133.771 37.8542 133.75 37.9583 133.771 38.0208C134.438 39.2917 135.188 40.5 136 41.6458C136.063 41.6667 136.125 41.6875 136.188 41.6667C139.771 40.5625 143.375 38.8958 147.125 36.1458C147.167 36.125 147.188 36.0833 147.188 36.0417C148.104 26.6042 145.667 18.4167 140.729 11.1458C140.708 11.125 140.688 11.1042 140.646 11.1042ZM118.25 31.0625C116.104 31.0625 114.313 29.0833 114.313 26.6458C114.313 24.2083 116.063 22.2292 118.25 22.2292C120.458 22.2292 122.208 24.2292 122.188 26.6458C122.188 29.0833 120.438 31.0625 118.25 31.0625ZM132.771 31.0625C130.625 31.0625 128.833 29.0833 128.833 26.6458C128.833 24.2083 130.583 22.2292 132.771 22.2292C134.979 22.2292 136.729 24.2292 136.708 26.6458C136.708 29.0833 134.979 31.0625 132.771 31.0625Z" fill="#850F0F"/>
<path d="M248.48 15.168L242.641 21.0078C241.461 34.6836 229.928 45.3125 216.125 45.3125C213.289 45.3125 210.951 44.8633 209.176 43.9766C207.744 43.2598 207.158 42.4922 207.012 42.2735C206.881 42.0776 206.796 41.8547 206.764 41.6215C206.732 41.3883 206.752 41.1508 206.825 40.9268C206.897 40.7027 207.019 40.4979 207.182 40.3276C207.344 40.1573 207.543 40.026 207.764 39.9434C207.814 39.9239 212.498 38.125 215.473 34.7012C213.823 33.3449 212.383 31.7522 211.199 29.9746C208.777 26.3789 206.066 20.1328 206.902 10.7989C206.929 10.5023 207.039 10.2194 207.221 9.98364C207.403 9.74785 207.649 9.56893 207.929 9.46796C208.209 9.36699 208.512 9.34817 208.803 9.41372C209.093 9.47926 209.359 9.62644 209.568 9.83792C209.637 9.90628 216.068 16.3028 223.932 18.377V17.1875C223.929 15.9403 224.175 14.705 224.657 13.5545C225.139 12.4039 225.846 11.3614 226.736 10.4883C227.601 9.6245 228.631 8.94269 229.763 8.48312C230.896 8.02356 232.11 7.79554 233.332 7.81253C234.972 7.8287 236.579 8.26888 237.999 9.09027C239.418 9.91166 240.601 11.0863 241.432 12.5H247.375C247.684 12.4998 247.986 12.5913 248.244 12.763C248.501 12.9346 248.701 13.1788 248.82 13.4644C248.938 13.7501 248.969 14.0644 248.909 14.3677C248.848 14.671 248.699 14.9495 248.48 15.168Z" fill="#850F0F"/>
<path d="M329.731 5H311.269C308.414 5.00305 305.677 6.13865 303.658 8.15761C301.639 10.1766 300.503 12.914 300.5 15.7692V34.2308C300.503 37.086 301.639 39.8234 303.658 41.8424C305.677 43.8614 308.414 44.9969 311.269 45H329.731C332.586 44.9969 335.323 43.8614 337.342 41.8424C339.361 39.8234 340.497 37.086 340.5 34.2308V15.7692C340.497 12.914 339.361 10.1766 337.342 8.15761C335.323 6.13865 332.586 5.00305 329.731 5ZM320.5 34.2308C318.674 34.2308 316.89 33.6894 315.372 32.6751C313.854 31.6608 312.671 30.2192 311.972 28.5325C311.273 26.8458 311.09 24.9898 311.447 23.1992C311.803 21.4086 312.682 19.7638 313.973 18.4729C315.264 17.1819 316.909 16.3028 318.699 15.9466C320.49 15.5904 322.346 15.7732 324.032 16.4719C325.719 17.1705 327.161 18.3537 328.175 19.8717C329.189 21.3897 329.731 23.1743 329.731 25C329.728 27.4474 328.755 29.7938 327.024 31.5243C325.294 33.2549 322.947 34.2282 320.5 34.2308ZM332.038 15.7692C331.582 15.7692 331.136 15.6339 330.756 15.3803C330.377 15.1267 330.081 14.7663 329.906 14.3447C329.732 13.923 329.686 13.459 329.775 13.0113C329.864 12.5637 330.084 12.1525 330.407 11.8298C330.729 11.507 331.141 11.2872 331.588 11.1982C332.036 11.1091 332.5 11.1548 332.922 11.3295C333.343 11.5042 333.704 11.8 333.957 12.1795C334.211 12.559 334.346 13.0051 334.346 13.4615C334.346 14.0736 334.103 14.6605 333.67 15.0933C333.237 15.5261 332.651 15.7692 332.038 15.7692ZM326.654 25C326.654 26.2171 326.293 27.4069 325.617 28.4189C324.941 29.4309 323.979 30.2196 322.855 30.6854C321.731 31.1512 320.493 31.2731 319.299 31.0356C318.106 30.7982 317.009 30.2121 316.149 29.3514C315.288 28.4908 314.702 27.3943 314.464 26.2006C314.227 25.0068 314.349 23.7695 314.815 22.645C315.28 21.5206 316.069 20.5595 317.081 19.8833C318.093 19.2071 319.283 18.8462 320.5 18.8462C322.132 18.8462 323.697 19.4945 324.851 20.6486C326.005 21.8026 326.654 23.3679 326.654 25Z" fill="#850F0F"/>
</svg>
