<svg width="277" height="109" viewBox="0 0 277 109" fill="none" xmlns="http://www.w3.org/2000/svg">
<mask id="path-1-outside-1_88_521" maskUnits="userSpaceOnUse" x="0" y="0" width="277" height="109" fill="black">
<rect fill="white" width="277" height="109"/>
<path d="M40.624 79.752L24.976 93.096L11.824 80.808V68.328L10 65.544H22.672V72.168L29.104 77.832V18.6H40.624V79.752ZM29.104 15.912V7.944L27.28 5.15999H42.448L40.624 7.944V15.912H29.104ZM60.751 46.44V30.024H54.319V46.44H60.751ZM54.319 57.864V76.584L43.279 67.752V23.208L47.407 18.6H68.143L72.463 22.92V67.752L60.751 76.584V57.864H54.319ZM102.626 18.6H114.338V66.792L102.626 75.336V47.784L94.9458 67.08L86.3058 47.976V75.336L74.5938 66.792V18.6H86.3058L93.9858 36.072L102.626 18.6ZM119.358 93.192V21L117.438 18.6H147.87V32.232H136.35V29.928H129.918V44.52H140.958V55.848H129.918V84.456L131.454 86.76L118.686 96.168L119.358 93.192ZM173.612 18.6L177.932 22.92V66.792L162.092 78.408L148.748 67.752V23.208L152.876 18.6H173.612ZM159.788 30.024V59.976L166.22 65.448V30.024H159.788ZM205.503 18.6L209.151 23.112V40.008L201.663 44.136L209.151 48.36V67.752L197.439 75.336V53.928L191.007 49.896V75.72L179.966 67.752V22.44L182.943 18.6H205.503ZM191.007 29.448V38.76L197.439 34.92V29.448H191.007ZM228.657 56.424H224.529V46.152H240.369V66.792L224.529 78.408L211.185 67.752V23.208L215.313 18.6H236.049L240.369 22.92V36.36H228.657V30.024H222.225V59.976L228.657 65.448V56.424ZM253.444 51.144V59.976L259.876 65.448V54.792H271.588V66.792L255.748 78.408L242.404 67.752V23.208L246.532 18.6H267.268L271.588 22.92V36.36H259.876V30.024H253.444V39.432H259.684V51.144H253.444Z"/>
</mask>
<path d="M40.624 79.752L24.976 93.096L11.824 80.808V68.328L10 65.544H22.672V72.168L29.104 77.832V18.6H40.624V79.752ZM29.104 15.912V7.944L27.28 5.15999H42.448L40.624 7.944V15.912H29.104ZM60.751 46.44V30.024H54.319V46.44H60.751ZM54.319 57.864V76.584L43.279 67.752V23.208L47.407 18.6H68.143L72.463 22.92V67.752L60.751 76.584V57.864H54.319ZM102.626 18.6H114.338V66.792L102.626 75.336V47.784L94.9458 67.08L86.3058 47.976V75.336L74.5938 66.792V18.6H86.3058L93.9858 36.072L102.626 18.6ZM119.358 93.192V21L117.438 18.6H147.87V32.232H136.35V29.928H129.918V44.52H140.958V55.848H129.918V84.456L131.454 86.76L118.686 96.168L119.358 93.192ZM173.612 18.6L177.932 22.92V66.792L162.092 78.408L148.748 67.752V23.208L152.876 18.6H173.612ZM159.788 30.024V59.976L166.22 65.448V30.024H159.788ZM205.503 18.6L209.151 23.112V40.008L201.663 44.136L209.151 48.36V67.752L197.439 75.336V53.928L191.007 49.896V75.72L179.966 67.752V22.44L182.943 18.6H205.503ZM191.007 29.448V38.76L197.439 34.92V29.448H191.007ZM228.657 56.424H224.529V46.152H240.369V66.792L224.529 78.408L211.185 67.752V23.208L215.313 18.6H236.049L240.369 22.92V36.36H228.657V30.024H222.225V59.976L228.657 65.448V56.424ZM253.444 51.144V59.976L259.876 65.448V54.792H271.588V66.792L255.748 78.408L242.404 67.752V23.208L246.532 18.6H267.268L271.588 22.92V36.36H259.876V30.024H253.444V39.432H259.684V51.144H253.444Z" fill="white"/>
<path d="M40.624 79.752L43.8683 83.5565L45.624 82.0593V79.752H40.624ZM24.976 93.096L21.5625 96.7495L24.824 99.7968L28.2203 96.9005L24.976 93.096ZM11.824 80.808H6.824V82.9792L8.41051 84.4615L11.824 80.808ZM11.824 68.328H16.824V66.8359L16.0063 65.5879L11.824 68.328ZM10 65.544V60.544H0.746571L5.8177 68.2841L10 65.544ZM22.672 65.544H27.672V60.544H22.672V65.544ZM22.672 72.168H17.672V74.4273L19.3676 75.9205L22.672 72.168ZM29.104 77.832L25.7996 81.5845L34.104 88.8973V77.832H29.104ZM29.104 18.6V13.6H24.104V18.6H29.104ZM40.624 18.6H45.624V13.6H40.624V18.6ZM29.104 15.912H24.104V20.912H29.104V15.912ZM29.104 7.944H34.104V6.45193L33.2863 5.20387L29.104 7.944ZM27.28 5.15999V0.159992H18.0266L23.0977 7.90012L27.28 5.15999ZM42.448 5.15999L46.6303 7.90012L51.7014 0.159992H42.448V5.15999ZM40.624 7.944L36.4417 5.20387L35.624 6.45193V7.944H40.624ZM40.624 15.912V20.912H45.624V15.912H40.624ZM37.3797 75.9475L21.7317 89.2915L28.2203 96.9005L43.8683 83.5565L37.3797 75.9475ZM28.3895 89.4425L15.2375 77.1545L8.41051 84.4615L21.5625 96.7495L28.3895 89.4425ZM16.824 80.808V68.328H6.824V80.808H16.824ZM16.0063 65.5879L14.1823 62.8039L5.8177 68.2841L7.6417 71.0681L16.0063 65.5879ZM10 70.544H22.672V60.544H10V70.544ZM17.672 65.544V72.168H27.672V65.544H17.672ZM19.3676 75.9205L25.7996 81.5845L32.4084 74.0795L25.9764 68.4155L19.3676 75.9205ZM34.104 77.832V18.6H24.104V77.832H34.104ZM29.104 23.6H40.624V13.6H29.104V23.6ZM35.624 18.6V79.752H45.624V18.6H35.624ZM34.104 15.912V7.944H24.104V15.912H34.104ZM33.2863 5.20387L31.4623 2.41986L23.0977 7.90012L24.9217 10.6841L33.2863 5.20387ZM27.28 10.16H42.448V0.159992H27.28V10.16ZM38.2657 2.41986L36.4417 5.20387L44.8063 10.6841L46.6303 7.90012L38.2657 2.41986ZM35.624 7.944V15.912H45.624V7.944H35.624ZM40.624 10.912H29.104V20.912H40.624V10.912ZM60.751 46.44V51.44H65.751V46.44H60.751ZM60.751 30.024H65.751V25.024H60.751V30.024ZM54.319 30.024V25.024H49.319V30.024H54.319ZM54.319 46.44H49.319V51.44H54.319V46.44ZM54.319 57.864V52.864H49.319V57.864H54.319ZM54.319 76.584L51.1955 80.4883L59.319 86.9871V76.584H54.319ZM43.279 67.752H38.279V70.1551L40.1555 71.6563L43.279 67.752ZM43.279 23.208L39.5548 19.8718L38.279 21.2959V23.208H43.279ZM47.407 18.6V13.6H45.1733L43.6828 15.2638L47.407 18.6ZM68.143 18.6L71.6785 15.0645L70.2141 13.6H68.143V18.6ZM72.463 22.92H77.463V20.8489L75.9985 19.3845L72.463 22.92ZM72.463 67.752L75.4735 71.7441L77.463 70.2438V67.752H72.463ZM60.751 76.584H55.751V86.6168L63.7615 80.5761L60.751 76.584ZM60.751 57.864H65.751V52.864H60.751V57.864ZM65.751 46.44V30.024H55.751V46.44H65.751ZM60.751 25.024H54.319V35.024H60.751V25.024ZM49.319 30.024V46.44H59.319V30.024H49.319ZM54.319 51.44H60.751V41.44H54.319V51.44ZM49.319 57.864V76.584H59.319V57.864H49.319ZM57.4425 72.6797L46.4025 63.8477L40.1555 71.6563L51.1955 80.4883L57.4425 72.6797ZM48.279 67.752V23.208H38.279V67.752H48.279ZM47.0032 26.5442L51.1312 21.9362L43.6828 15.2638L39.5548 19.8718L47.0032 26.5442ZM47.407 23.6H68.143V13.6H47.407V23.6ZM64.6075 22.1355L68.9275 26.4555L75.9985 19.3845L71.6785 15.0645L64.6075 22.1355ZM67.463 22.92V67.752H77.463V22.92H67.463ZM69.4525 63.7599L57.7405 72.5919L63.7615 80.5761L75.4735 71.7441L69.4525 63.7599ZM65.751 76.584V57.864H55.751V76.584H65.751ZM60.751 52.864H54.319V62.864H60.751V52.864ZM102.626 18.6V13.6H99.5203L98.1438 16.3837L102.626 18.6ZM114.338 18.6H119.338V13.6H114.338V18.6ZM114.338 66.792L117.285 70.8314L119.338 69.3335V66.792H114.338ZM102.626 75.336H97.6258V85.1726L105.573 79.3754L102.626 75.336ZM102.626 47.784H107.626L97.9802 45.935L102.626 47.784ZM94.9458 67.08L90.39 69.1404L95.2394 79.863L99.5913 68.929L94.9458 67.08ZM86.3057 47.976L90.8615 45.9156L81.3057 47.976H86.3057ZM86.3057 75.336L83.359 79.3754L91.3057 85.1726V75.336H86.3057ZM74.5938 66.792H69.5938V69.3335L71.647 70.8314L74.5938 66.792ZM74.5938 18.6V13.6H69.5938V18.6H74.5938ZM86.3057 18.6L90.8831 16.588L89.5697 13.6H86.3057V18.6ZM93.9857 36.072L89.4084 38.084L93.7192 47.8909L98.4677 38.2883L93.9857 36.072ZM102.626 23.6H114.338V13.6H102.626V23.6ZM109.338 18.6V66.792H119.338V18.6H109.338ZM111.391 62.7526L99.679 71.2966L105.573 79.3754L117.285 70.8314L111.391 62.7526ZM107.626 75.336V47.784H97.6258V75.336H107.626ZM97.9802 45.935L90.3002 65.231L99.5913 68.929L107.271 49.633L97.9802 45.935ZM99.5015 65.0196L90.8615 45.9156L81.75 50.0364L90.39 69.1404L99.5015 65.0196ZM81.3057 47.976V75.336H91.3057V47.976H81.3057ZM89.2525 71.2966L77.5405 62.7526L71.647 70.8314L83.359 79.3754L89.2525 71.2966ZM79.5938 66.792V18.6H69.5938V66.792H79.5938ZM74.5938 23.6H86.3057V13.6H74.5938V23.6ZM81.7284 20.612L89.4084 38.084L98.5631 34.06L90.8831 16.588L81.7284 20.612ZM98.4677 38.2883L107.108 20.8163L98.1438 16.3837L89.5038 33.8556L98.4677 38.2883ZM119.357 93.192L124.235 94.2933L124.357 93.7495V93.192H119.357ZM119.357 21H124.357V19.2461L123.262 17.8765L119.357 21ZM117.438 18.6V13.6H107.034L113.533 21.7235L117.438 18.6ZM147.87 18.6H152.87V13.6H147.87V18.6ZM147.87 32.232V37.232H152.87V32.232H147.87ZM136.35 32.232H131.35V37.232H136.35V32.232ZM136.35 29.928H141.35V24.928H136.35V29.928ZM129.918 29.928V24.928H124.918V29.928H129.918ZM129.918 44.52H124.918V49.52H129.918V44.52ZM140.958 44.52H145.958V39.52H140.958V44.52ZM140.958 55.848V60.848H145.958V55.848H140.958ZM129.918 55.848V50.848H124.918V55.848H129.918ZM129.918 84.456H124.918V85.9699L125.757 87.2295L129.918 84.456ZM131.453 86.76L134.419 90.7853L138.26 87.9556L135.614 83.9865L131.453 86.76ZM118.686 96.168L113.808 95.0667L110.854 108.149L121.651 100.193L118.686 96.168ZM124.357 93.192V21H114.357V93.192H124.357ZM123.262 17.8765L121.342 15.4765L113.533 21.7235L115.453 24.1235L123.262 17.8765ZM117.438 23.6H147.87V13.6H117.438V23.6ZM142.87 18.6V32.232H152.87V18.6H142.87ZM147.87 27.232H136.35V37.232H147.87V27.232ZM141.35 32.232V29.928H131.35V32.232H141.35ZM136.35 24.928H129.918V34.928H136.35V24.928ZM124.918 29.928V44.52H134.918V29.928H124.918ZM129.918 49.52H140.958V39.52H129.918V49.52ZM135.958 44.52V55.848H145.958V44.52H135.958ZM140.958 50.848H129.918V60.848H140.958V50.848ZM124.918 55.848V84.456H134.918V55.848H124.918ZM125.757 87.2295L127.293 89.5335L135.614 83.9865L134.078 81.6825L125.757 87.2295ZM128.488 82.7347L115.72 92.1427L121.651 100.193L134.419 90.7853L128.488 82.7347ZM123.563 97.2693L124.235 94.2933L114.48 92.0907L113.808 95.0667L123.563 97.2693ZM173.612 18.6L177.147 15.0645L175.683 13.6H173.612V18.6ZM177.932 22.92H182.932V20.8489L181.467 19.3845L177.932 22.92ZM177.932 66.792L180.889 70.824L182.932 69.3257V66.792H177.932ZM162.092 78.408L158.972 82.3151L161.962 84.7033L165.049 82.44L162.092 78.408ZM148.748 67.752H143.748V70.1578L145.628 71.6591L148.748 67.752ZM148.748 23.208L145.024 19.8718L143.748 21.2959V23.208H148.748ZM152.876 18.6V13.6H150.642L149.152 15.2638L152.876 18.6ZM159.788 30.024V25.024H154.788V30.024H159.788ZM159.788 59.976H154.788V62.2869L156.548 63.7843L159.788 59.976ZM166.22 65.448L162.98 69.2563L171.22 76.2663V65.448H166.22ZM166.22 30.024H171.22V25.024H166.22V30.024ZM170.076 22.1355L174.396 26.4555L181.467 19.3845L177.147 15.0645L170.076 22.1355ZM172.932 22.92V66.792H182.932V22.92H172.932ZM174.975 62.76L159.135 74.376L165.049 82.44L180.889 70.824L174.975 62.76ZM165.212 74.5009L151.868 63.8449L145.628 71.6591L158.972 82.3151L165.212 74.5009ZM153.748 67.752V23.208H143.748V67.752H153.748ZM152.472 26.5442L156.6 21.9362L149.152 15.2638L145.024 19.8718L152.472 26.5442ZM152.876 23.6H173.612V13.6H152.876V23.6ZM154.788 30.024V59.976H164.788V30.024H154.788ZM156.548 63.7843L162.98 69.2563L169.46 61.6397L163.028 56.1677L156.548 63.7843ZM171.22 65.448V30.024H161.22V65.448H171.22ZM166.22 25.024H159.788V35.024H166.22V25.024ZM205.503 18.6L209.391 15.4564L207.89 13.6H205.503V18.6ZM209.15 23.112H214.15V21.3436L213.039 19.9684L209.15 23.112ZM209.15 40.008L211.564 44.3867L214.15 42.961V40.008H209.15ZM201.663 44.136L199.249 39.7573L191.397 44.0858L199.206 48.4909L201.663 44.136ZM209.15 48.36H214.15V45.4398L211.607 44.0051L209.15 48.36ZM209.15 67.752L211.868 71.9489L214.15 70.471V67.752H209.15ZM197.439 75.336H192.439V84.5304L200.156 79.5329L197.439 75.336ZM197.439 53.928H202.439V51.1611L200.094 49.6916L197.439 53.928ZM191.007 49.896L193.662 45.6596L186.007 40.8605V49.896H191.007ZM191.007 75.72L188.08 79.7743L196.007 85.4949V75.72H191.007ZM179.967 67.752H174.967V70.3096L177.04 71.8063L179.967 67.752ZM179.967 22.44L176.014 19.3771L174.967 20.7293V22.44H179.967ZM182.943 18.6V13.6H180.492L178.99 15.5371L182.943 18.6ZM191.007 29.448V24.448H186.007V29.448H191.007ZM191.007 38.76H186.007V47.5684L193.57 43.0531L191.007 38.76ZM197.439 34.92L200.002 39.2131L202.439 37.7582V34.92H197.439ZM197.439 29.448H202.439V24.448H197.439V29.448ZM201.614 21.7436L205.262 26.2556L213.039 19.9684L209.391 15.4564L201.614 21.7436ZM204.15 23.112V40.008H214.15V23.112H204.15ZM206.737 35.6293L199.249 39.7573L204.076 48.5147L211.564 44.3867L206.737 35.6293ZM199.206 48.4909L206.694 52.7149L211.607 44.0051L204.119 39.7811L199.206 48.4909ZM204.15 48.36V67.752H214.15V48.36H204.15ZM206.433 63.5551L194.721 71.1391L200.156 79.5329L211.868 71.9489L206.433 63.5551ZM202.439 75.336V53.928H192.439V75.336H202.439ZM200.094 49.6916L193.662 45.6596L188.351 54.1324L194.783 58.1644L200.094 49.6916ZM186.007 49.896V75.72H196.007V49.896H186.007ZM193.933 71.6657L182.893 63.6977L177.04 71.8063L188.08 79.7743L193.933 71.6657ZM184.967 67.752V22.44H174.967V67.752H184.967ZM183.919 25.5029L186.895 21.6629L178.99 15.5371L176.014 19.3771L183.919 25.5029ZM182.943 23.6H205.503V13.6H182.943V23.6ZM186.007 29.448V38.76H196.007V29.448H186.007ZM193.57 43.0531L200.002 39.2131L194.875 30.6269L188.443 34.4669L193.57 43.0531ZM202.439 34.92V29.448H192.439V34.92H202.439ZM197.439 24.448H191.007V34.448H197.439V24.448ZM228.657 56.424H233.657V51.424H228.657V56.424ZM224.529 56.424H219.529V61.424H224.529V56.424ZM224.529 46.152V41.152H219.529V46.152H224.529ZM240.369 46.152H245.369V41.152H240.369V46.152ZM240.369 66.792L243.326 70.824L245.369 69.3257V66.792H240.369ZM224.529 78.408L221.409 82.3151L224.4 84.7033L227.486 82.44L224.529 78.408ZM211.185 67.752H206.185V70.1578L208.065 71.6591L211.185 67.752ZM211.185 23.208L207.461 19.8718L206.185 21.2959V23.208H211.185ZM215.313 18.6V13.6H213.08L211.589 15.2638L215.313 18.6ZM236.049 18.6L239.585 15.0645L238.12 13.6H236.049V18.6ZM240.369 22.92H245.369V20.8489L243.905 19.3845L240.369 22.92ZM240.369 36.36V41.36H245.369V36.36H240.369ZM228.657 36.36H223.657V41.36H228.657V36.36ZM228.657 30.024H233.657V25.024H228.657V30.024ZM222.225 30.024V25.024H217.225V30.024H222.225ZM222.225 59.976H217.225V62.2869L218.985 63.7843L222.225 59.976ZM228.657 65.448L225.417 69.2563L233.657 76.2663V65.448H228.657ZM228.657 51.424H224.529V61.424H228.657V51.424ZM229.529 56.424V46.152H219.529V56.424H229.529ZM224.529 51.152H240.369V41.152H224.529V51.152ZM235.369 46.152V66.792H245.369V46.152H235.369ZM237.412 62.76L221.572 74.376L227.486 82.44L243.326 70.824L237.412 62.76ZM227.649 74.5009L214.305 63.8449L208.065 71.6591L221.409 82.3151L227.649 74.5009ZM216.185 67.752V23.208H206.185V67.752H216.185ZM214.909 26.5442L219.037 21.9362L211.589 15.2638L207.461 19.8718L214.909 26.5442ZM215.313 23.6H236.049V13.6H215.313V23.6ZM232.514 22.1355L236.834 26.4555L243.905 19.3845L239.585 15.0645L232.514 22.1355ZM235.369 22.92V36.36H245.369V22.92H235.369ZM240.369 31.36H228.657V41.36H240.369V31.36ZM233.657 36.36V30.024H223.657V36.36H233.657ZM228.657 25.024H222.225V35.024H228.657V25.024ZM217.225 30.024V59.976H227.225V30.024H217.225ZM218.985 63.7843L225.417 69.2563L231.897 61.6397L225.465 56.1677L218.985 63.7843ZM233.657 65.448V56.424H223.657V65.448H233.657ZM253.444 51.144V46.144H248.444V51.144H253.444ZM253.444 59.976H248.444V62.2869L250.204 63.7843L253.444 59.976ZM259.876 65.448L256.636 69.2563L264.876 76.2663V65.448H259.876ZM259.876 54.792V49.792H254.876V54.792H259.876ZM271.588 54.792H276.588V49.792H271.588V54.792ZM271.588 66.792L274.545 70.824L276.588 69.3257V66.792H271.588ZM255.748 78.408L252.628 82.3151L255.619 84.7033L258.705 82.44L255.748 78.408ZM242.404 67.752H237.404V70.1578L239.284 71.6591L242.404 67.752ZM242.404 23.208L238.68 19.8718L237.404 21.2959V23.208H242.404ZM246.532 18.6V13.6H244.298L242.808 15.2638L246.532 18.6ZM267.268 18.6L270.804 15.0645L269.339 13.6H267.268V18.6ZM271.588 22.92H276.588V20.8489L275.124 19.3845L271.588 22.92ZM271.588 36.36V41.36H276.588V36.36H271.588ZM259.876 36.36H254.876V41.36H259.876V36.36ZM259.876 30.024H264.876V25.024H259.876V30.024ZM253.444 30.024V25.024H248.444V30.024H253.444ZM253.444 39.432H248.444V44.432H253.444V39.432ZM259.684 39.432H264.684V34.432H259.684V39.432ZM259.684 51.144V56.144H264.684V51.144H259.684ZM248.444 51.144V59.976H258.444V51.144H248.444ZM250.204 63.7843L256.636 69.2563L263.116 61.6397L256.684 56.1677L250.204 63.7843ZM264.876 65.448V54.792H254.876V65.448H264.876ZM259.876 59.792H271.588V49.792H259.876V59.792ZM266.588 54.792V66.792H276.588V54.792H266.588ZM268.631 62.76L252.791 74.376L258.705 82.44L274.545 70.824L268.631 62.76ZM258.868 74.5009L245.524 63.8449L239.284 71.6591L252.628 82.3151L258.868 74.5009ZM247.404 67.752V23.208H237.404V67.752H247.404ZM246.128 26.5442L250.256 21.9362L242.808 15.2638L238.68 19.8718L246.128 26.5442ZM246.532 23.6H267.268V13.6H246.532V23.6ZM263.732 22.1355L268.052 26.4555L275.124 19.3845L270.804 15.0645L263.732 22.1355ZM266.588 22.92V36.36H276.588V22.92H266.588ZM271.588 31.36H259.876V41.36H271.588V31.36ZM264.876 36.36V30.024H254.876V36.36H264.876ZM259.876 25.024H253.444V35.024H259.876V25.024ZM248.444 30.024V39.432H258.444V30.024H248.444ZM253.444 44.432H259.684V34.432H253.444V44.432ZM254.684 39.432V51.144H264.684V39.432H254.684ZM259.684 46.144H253.444V56.144H259.684V46.144Z" fill="black" mask="url(#path-1-outside-1_88_521)"/>
</svg>
